<?xml version="1.0" standalone="no"?>
<!DOCTYPE svg PUBLIC "-//W3C//DTD SVG 20010904//EN"
 "http://www.w3.org/TR/2001/REC-SVG-20010904/DTD/svg10.dtd">
<svg version="1.0" xmlns="http://www.w3.org/2000/svg"
 width="512.000000pt" height="512.000000pt" viewBox="0 0 512.000000 512.000000"
 preserveAspectRatio="xMidYMid meet">

<g transform="translate(0.000000,512.000000) scale(0.100000,-0.100000)"
fill="#000000" stroke="none">
<path d="M2480 5035 l0 -85 80 0 80 0 0 54 c0 29 3 68 6 85 l7 31 -87 0 -86 0
0 -85z"/>
<path d="M2218 5097 c-89 -11 -86 -5 -67 -115 l11 -64 66 7 c98 10 94 6 86 94
-4 42 -9 78 -13 81 -3 3 -41 2 -83 -3z"/>
<path d="M2815 5085 c-2 -11 -7 -48 -10 -81 -7 -71 -9 -69 87 -79 l66 -7 11
64 c19 109 22 104 -69 115 -77 8 -81 8 -85 -12z"/>
<path d="M1883 5028 c-84 -23 -84 -23 -50 -119 l22 -66 73 20 c39 11 72 26 72
32 0 26 -32 155 -39 154 -3 0 -39 -10 -78 -21z"/>
<path d="M3135 4970 c-10 -44 -16 -82 -14 -84 2 -2 37 -13 76 -24 l73 -20 21
70 c11 39 23 76 25 82 3 8 -22 19 -68 31 -40 10 -78 20 -84 22 -6 2 -18 -30
-29 -77z"/>
<path d="M1563 4917 c-40 -17 -73 -35 -73 -41 0 -5 14 -40 32 -78 35 -76 28
-75 125 -32 44 20 54 28 48 42 -4 9 -16 42 -27 72 -11 30 -23 58 -27 61 -3 4
-39 -7 -78 -24z"/>
<path d="M3475 4932 c-4 -9 -18 -45 -31 -80 l-24 -62 54 -24 c95 -42 87 -44
129 39 l37 76 -47 20 c-117 50 -111 49 -118 31z"/>
<path d="M1253 4761 c-34 -20 -63 -40 -63 -45 0 -12 80 -136 89 -136 5 0 120
67 129 75 7 6 -73 145 -83 144 -5 -1 -38 -17 -72 -38z"/>
<path d="M3764 4753 c-15 -26 -34 -59 -42 -72 -16 -27 -20 -22 65 -72 29 -17
57 -28 62 -25 5 3 27 34 49 69 l40 64 -66 39 c-36 22 -69 40 -73 42 -4 2 -20
-18 -35 -45z"/>
<path d="M2515 4761 c-73 -45 -233 -225 -313 -354 -178 -284 -198 -572 -61
-850 61 -124 142 -239 240 -342 l89 -93 -1 -108 c0 -106 -1 -108 -17 -85 -80
116 -174 196 -307 262 -164 81 -348 119 -581 119 l-136 0 -30 -30 -30 -31 5
-177 c10 -338 83 -553 251 -739 150 -165 467 -283 765 -283 l81 0 -1 -247 c0
-236 -1 -247 -17 -223 -172 248 -462 374 -865 375 l-169 0 -24 -28 c-23 -27
-24 -34 -24 -172 0 -353 103 -640 291 -809 164 -148 394 -230 676 -243 l133
-6 2 -176 3 -176 85 0 85 0 3 176 2 176 133 6 c340 15 605 133 763 338 133
173 204 422 204 714 0 138 -1 145 -24 172 l-24 28 -169 0 c-403 -1 -693 -127
-865 -375 -16 -24 -17 -13 -17 223 l-1 247 81 0 c176 0 383 46 534 119 165 80
276 188 359 350 86 169 116 303 123 553 l5 177 -31 32 -32 31 -177 -5 c-248
-7 -392 -39 -559 -126 -115 -60 -210 -144 -285 -252 -16 -23 -17 -20 -17 86
l-1 111 66 64 c167 165 300 393 338 582 42 207 -4 423 -135 633 -108 173 -301
375 -359 375 -8 0 -28 -8 -45 -19z m113 -255 c166 -178 272 -401 272 -572 0
-173 -88 -377 -239 -551 -44 -52 -46 -53 -101 -53 -55 0 -57 1 -101 53 -151
174 -239 378 -239 551 0 126 66 303 167 444 48 68 160 192 173 192 4 0 35 -29
68 -64z m-783 -1391 c164 -34 310 -108 400 -201 121 -124 197 -332 211 -581
l7 -113 -66 0 c-249 0 -503 88 -637 220 -125 124 -205 338 -217 579 l-6 124
114 -6 c63 -3 150 -13 194 -22z m1732 -97 c-12 -237 -91 -452 -212 -574 -130
-130 -335 -206 -596 -221 l-109 -6 0 59 c0 217 67 447 172 588 122 165 379
271 667 275 l84 1 -6 -122z m-1822 -1238 c453 -65 673 -314 701 -797 l7 -113
-79 0 c-164 0 -350 45 -489 118 -210 111 -335 352 -352 680 l-6 122 74 0 c41
0 106 -5 144 -10z m1822 -112 c-13 -254 -89 -452 -222 -584 -130 -127 -383
-214 -627 -214 l-71 0 7 113 c15 254 91 459 217 586 133 132 372 217 623 220
l79 1 -6 -122z"/>
<path d="M215 4603 c-87 -19 -150 -65 -188 -137 -22 -40 -22 -50 -25 -522 -3
-467 -2 -483 18 -537 23 -61 78 -119 138 -144 20 -8 69 -17 109 -20 l73 -6 0
-1247 c0 -1379 -3 -1307 65 -1387 95 -112 270 -117 373 -12 73 74 67 -47 70
1370 l2 1276 74 6 c122 9 206 61 247 152 17 37 19 77 19 530 0 453 -2 493 -19
530 -60 133 -220 188 -352 121 l-55 -27 -35 20 c-85 49 -192 48 -269 -3 -35
-23 -36 -23 -59 -5 -42 34 -132 54 -186 42z m103 -199 c22 -25 22 -29 22 -300
0 -332 3 -344 95 -344 24 0 39 7 54 26 20 26 21 39 21 301 0 303 3 322 60 341
35 13 56 8 88 -21 22 -20 22 -23 22 -292 0 -280 5 -326 40 -345 32 -17 82 -11
107 12 23 21 23 22 23 295 0 306 4 332 59 351 36 13 56 8 89 -21 l22 -20 0
-462 0 -462 -26 -24 c-24 -22 -35 -24 -144 -27 -111 -3 -119 -5 -142 -29 l-23
-25 -3 -1311 c-2 -1229 -3 -1312 -20 -1330 -26 -29 -57 -38 -92 -26 -64 23
-60 -60 -60 1369 l0 1301 -25 24 c-22 23 -31 25 -125 25 -116 0 -165 15 -180
55 -16 41 -13 894 3 925 27 54 93 61 135 14z"/>
<path d="M4424 4595 c-101 -22 -180 -68 -271 -160 -69 -70 -89 -99 -131 -186
-76 -156 -87 -212 -86 -414 0 -156 2 -177 28 -260 15 -49 46 -125 69 -169 44
-82 139 -195 201 -237 l36 -24 2 -1230 c3 -1365 -3 -1250 70 -1324 103 -105
278 -100 373 12 68 79 65 12 65 1342 l0 1202 52 39 c100 75 192 213 241 364
146 449 -77 966 -452 1046 -80 17 -117 17 -197 -1z m232 -189 c220 -101 346
-459 269 -762 -21 -81 -74 -189 -123 -250 -22 -28 -72 -72 -110 -98 -39 -25
-73 -53 -76 -62 -3 -9 -6 -569 -6 -1245 0 -1351 3 -1275 -60 -1297 -35 -13
-56 -8 -87 21 l-23 20 0 1236 c0 975 -3 1241 -13 1261 -7 14 -35 39 -61 57
-170 111 -266 310 -266 550 0 133 21 226 76 338 108 222 299 314 480 231z"/>
<path d="M1233 483 c-20 -32 -39 -63 -44 -68 -10 -13 130 -100 142 -88 11 12
80 135 77 138 -10 10 -124 75 -131 75 -4 0 -24 -26 -44 -57z"/>
<path d="M3775 504 c-33 -20 -61 -37 -63 -39 -7 -7 74 -145 83 -143 24 6 135
74 135 82 0 13 -81 136 -89 136 -3 0 -33 -16 -66 -36z"/>
<path d="M1517 315 l-37 -76 32 -14 c18 -7 54 -22 80 -33 43 -19 47 -19 53 -4
4 9 18 45 31 80 l24 62 -54 24 c-95 42 -87 44 -129 -39z"/>
<path d="M3495 364 c-33 -14 -63 -29 -67 -33 -4 -4 1 -29 11 -56 11 -28 24
-62 30 -77 l10 -27 76 31 c41 18 75 36 75 42 0 15 -62 146 -69 146 -3 -1 -33
-12 -66 -26z"/>
<path d="M1829 208 c-11 -39 -23 -76 -25 -82 -3 -8 22 -19 68 -31 40 -10 78
-20 84 -22 10 -4 52 153 43 161 -2 2 -37 13 -76 24 l-73 20 -21 -70z"/>
<path d="M3193 257 c-40 -11 -73 -26 -73 -32 0 -7 7 -45 16 -84 13 -57 20 -71
33 -67 9 3 44 12 79 22 72 19 72 21 40 115 l-23 66 -72 -20z"/>
<path d="M2151 138 c-19 -109 -22 -104 69 -115 92 -10 84 -18 94 94 6 70 9 68
-86 78 l-66 7 -11 -64z"/>
<path d="M2870 193 c-76 -12 -72 -6 -65 -86 4 -40 8 -77 10 -83 2 -7 28 -7 84
-1 92 11 89 6 70 114 -11 62 -11 63 -43 62 -17 -1 -42 -3 -56 -6z"/>
<path d="M2480 116 c0 -29 -3 -68 -6 -85 l-6 -31 86 0 86 0 0 85 0 85 -80 0
-80 0 0 -54z"/>
</g>
</svg>
